<?xml version="1.0" encoding="utf-8"?>
<!-- Generator: Adobe Illustrator 19.1.0, SVG Export Plug-In . SVG Version: 6.00 Build 0)  -->
<!DOCTYPE svg PUBLIC "-//W3C//DTD SVG 1.1//EN" "http://www.w3.org/Graphics/SVG/1.1/DTD/svg11.dtd">
<svg version="1.1" id="Layer_1" xmlns="http://www.w3.org/2000/svg" xmlns:xlink="http://www.w3.org/1999/xlink" x="0px" y="0px"
	 viewBox="0 0 134.8 16.5" enable-background="new 0 0 134.8 16.5" xml:space="preserve">
<g>
	<path fill="#00B288" d="M54.7,11.8l1-7.3h1.8l-1.3,9.8c0,0,0,0.1,0,0.1c0,0.2,0,0.3,0.2,0.4l0.1,0.1l1.9-2l0.4,0.3l-0.2,0.3
		c-1.1,1.9-2.2,2.8-3.4,2.8c-0.7,0-1-0.3-1-0.9c0-0.1,0-0.3,0-0.5l0.3-2.5l-0.2,0.3c-1.7,2.3-3.1,3.5-4.5,3.5
		c-0.9,0-1.5-0.4-1.5-1.2c0-0.1,0-0.3,0-0.5l1.2-8.4c0,0,0-0.1,0-0.1c0-0.1,0-0.2-0.1-0.3l-0.1-0.1l-1.9,2L47,7.4
		c0.8-1.8,2.3-3.1,3.5-3.1c0.7,0,0.9,0.3,0.9,0.9c0,0.1,0,0.3,0,0.5l-1.2,8.5c0,0.1,0,0.1,0,0.2c0,0.4,0.1,0.5,0.4,0.5
		c0.4,0,0.8-0.2,1.5-0.8c1-0.8,1.1-0.9,2.4-2L54.7,11.8z M64.9,8.8L64,16.1h-1.8l1.2-9.7c0,0,0,0,0-0.1c0-0.1,0-0.3-0.1-0.4
		l-0.1-0.1l-1.9,2l-0.4-0.3c0.9-1.9,2.3-3.2,3.5-3.2c0.6,0,0.9,0.3,0.9,0.9c0,0.1,0,0.3,0,0.4L65,8.1c1.8-2.6,3.3-3.8,4.8-3.8
		c0.9,0,1.5,0.5,1.5,1.3c0,0.1,0,0.3,0,0.4l-1.1,8.3c0,0,0,0.1,0,0.1c0,0.1,0,0.2,0.1,0.3l0.1,0.1l1.9-2l0.4,0.4
		c-0.9,1.8-2.3,3.1-3.5,3.1c-0.6,0-1-0.3-1-0.9c0-0.1,0-0.3,0-0.5l1.1-8.5c0-0.1,0-0.1,0-0.2c0-0.3-0.1-0.4-0.4-0.4
		c-0.3,0-0.8,0.3-1.5,0.8l-1.3,1c-0.5,0.5-0.9,0.8-1.1,0.9C65.1,8.6,65.1,8.7,64.9,8.8z M77.1,5.7l-1.9,2l-0.4-0.3
		c0.9-1.9,2.3-3.2,3.5-3.2c0.7,0,1,0.3,1,1c0,0.1,0,0.3,0,0.5l-1.2,8.7c0,0,0,0.1,0,0.1c0,0.2,0,0.3,0.1,0.4l0.1,0.1l1.9-2l0.4,0.4
		c-0.9,1.9-2.3,3.2-3.5,3.2c-0.7,0-1-0.3-1-0.9c0-0.2,0-0.4,0-0.6l1.2-8.6c0,0,0-0.1,0-0.1c0-0.1,0-0.2-0.1-0.3L77.1,5.7z M79.2,0
		c0.6,0,1,0.4,1,1c0,1-0.5,1.6-1.4,1.6c-0.6,0-1-0.4-1-1C77.8,0.7,78.3,0,79.2,0z M86.2,16.3l-1.6-9.9c0-0.3-0.1-0.4-0.3-0.5L83,7.7
		l-0.4-0.3c0.8-2.1,1.7-3.2,2.7-3.2c0.7,0,0.9,0.3,1.1,1.4c0.5,2.9,0.6,4.1,0.8,5.7l0.3,2.5l0,0.4l0.2-0.4c1.2-2.3,1.5-2.9,2.2-4.6
		c0.5-1.1,0.6-1.4,0.8-2.3c-0.5-0.7-0.7-1.1-0.7-1.6c0-0.7,0.5-1.1,1.4-1.1c0.8,0,1.3,0.4,1.3,1c0,0.4-0.3,1.2-0.8,2.3
		c-0.3,0.6-0.7,1.4-1.2,2.4c-0.6,1.2-1.1,2.2-1.5,2.9l-1.7,2.9l-0.2,0.3L86.2,16.3z M101.6,13.3l0.4,0.6c-1.5,1.6-3,2.4-4.2,2.4
		c-2,0-3.1-1.6-3.1-4.2c0-4.3,2.7-7.8,5.9-7.8c1.3,0,2.2,0.8,2.2,2c0,1.2-0.7,2.3-1.7,2.9c-1,0.6-2.3,0.9-4.3,1c0,0.5,0,0.8,0,1
		c0,2.4,0.6,3.6,1.8,3.6C99.2,14.9,100.2,14.4,101.6,13.3z M96.7,9.6c1.1-0.1,2.2-0.4,2.9-0.8c0.7-0.4,1.1-1.2,1.1-2.2
		c0-0.8-0.4-1.3-1.2-1.3C98.1,5.3,97,7,96.7,9.6z M109.5,9.6l-0.7,6.4H107l1.1-9.7c0,0,0-0.1,0-0.1c0-0.1,0-0.2-0.1-0.3l-0.1-0.1
		l-1.9,2.1l-0.4-0.3c0.8-1.8,2.2-3.2,3.5-3.2c0.7,0,1,0.3,1,0.9c0,0.1,0,0.3,0,0.5l-0.4,3.1l0.3-0.4c1.8-3,2.8-4,4.1-4
		c0.7,0,1.1,0.3,1.1,0.9c0,0.3-0.2,0.8-0.5,1.2c-0.3,0.4-0.6,0.5-0.9,0.5c-0.4,0-0.8-0.2-1.2-0.6C111.7,7,110.3,8.6,109.5,9.6z
		 M121.3,5.2L121.3,5.2c-1.1,0-1.9,0.7-1.9,1.6c0,0.5,0.3,1,0.8,1.5L122,10c1,1,1.4,1.6,1.4,2.6c0,2.2-1.7,3.7-4.2,3.7
		c-1.6,0-2.8-0.6-2.8-1.4c0-0.6,0.6-1.1,1.2-1.1c0.6,0,0.9,0.3,1.8,1.6h0.2c1.3,0,2.1-0.8,2.1-1.9c0-0.6-0.2-1-1-1.7l-2.1-1.9
		c-0.7-0.6-1.1-1.4-1.1-2.3c0-1.8,1.8-3.3,4.1-3.3c1.5,0,2.5,0.5,2.5,1.3c0,0.6-0.6,1.2-1.3,1.2c-0.6,0-0.9-0.2-1.5-1.4L121.3,5.2z
		 M133.6,13.3l0.4,0.6c-1.5,1.6-3,2.4-4.2,2.4c-2,0-3.1-1.6-3.1-4.2c0-4.3,2.7-7.8,5.9-7.8c1.3,0,2.2,0.8,2.2,2
		c0,1.2-0.7,2.3-1.7,2.9c-1,0.6-2.3,0.9-4.3,1c0,0.5,0,0.8,0,1c0,2.4,0.6,3.6,1.8,3.6C131.3,14.9,132.3,14.4,133.6,13.3z M128.8,9.6
		c1.1-0.1,2.2-0.4,2.9-0.8c0.7-0.4,1.1-1.2,1.1-2.2c0-0.8-0.4-1.3-1.2-1.3C130.2,5.3,129.1,7,128.8,9.6z"/>
	<path fill="#C4D600" d="M12.6,16.1L11.8,5.8l-4,10.4H6.3l-4-10.4L1.5,16.1H0L1,3.8h2.2l4,10.4l4-10.4h2.2l1,12.3H12.6z"/>
	<path fill="#C4D600" d="M19.7,16.1h-1.6L23,3.6h1.7l4.9,12.3L28,16.3l-1.4-3.8h-5.5L19.7,16.1z M23.8,5.3L23.8,5.3l-2.3,5.7H26
		L23.8,5.3z"/>
	<path fill="#C4D600" d="M37,16.1h-3.5V3.8H37c4.2,0,6.6,2.5,6.6,6.1C43.6,13.6,41.1,16.1,37,16.1z M37.1,5.2h-1.9v9.4h1.9
		c3,0,4.9-1.6,4.9-4.7C42,6.9,40,5.2,37.1,5.2z"/>
</g>
</svg>
